<?xml version="1.0" encoding="utf-8"?>
<!-- Generator: Adobe Illustrator 30.2.1, SVG Export Plug-In . SVG Version: 9.03 Build 0)  -->
<svg version="1.0" id="Layer_1" xmlns="http://www.w3.org/2000/svg" xmlns:xlink="http://www.w3.org/1999/xlink" x="0px" y="0px"
	 viewBox="0 0 2250.71 799.37" style="enable-background:new 0 0 2250.71 799.37;" xml:space="preserve">
<style type="text/css">
	.st0{fill:#FFFFFF;}
	.st1{fill:none;stroke:#FFFFFF;stroke-width:2;stroke-miterlimit:10;}
	.st2{opacity:0.8;fill:#FFFFFF;enable-background:new    ;}
	.st3{opacity:0.6;fill:#FFFFFF;enable-background:new    ;}
	.st4{opacity:0.7;fill:#FFFFFF;enable-background:new    ;}
	.st5{opacity:0.5;fill:#FFFFFF;enable-background:new    ;}
	.st6{display:none;}
	.st7{display:inline;fill:#FFFFFF;}
</style>
<g id="Layer_1_00000116203982753203784460000004202832934870508728_">
	<g>
		<path class="st0" d="M307.82,326.85c-0.89,0-1.62-0.72-1.62-1.62V289.3c0-8.26,6.79-15.02,15.08-15.02h36.09
			c0.89,0,1.62,0.72,1.62,1.62v49.35c0,0.89-0.72,1.62-1.62,1.62h-49.55V326.85z"/>
		<path class="st0" d="M307.82,379.43h49.55c0.89,0,1.62,0.72,1.62,1.62v103.54c0,4.13-3.39,7.51-7.54,7.51h-37.7
			c-4.15,0-7.54-3.38-7.54-7.51V381.05C306.21,380.15,306.93,379.43,307.82,379.43z"/>
		<path class="st0" d="M411.78,275.89c0-0.89,0.72-1.62,1.62-1.62h96.42c4.15,0,7.54,3.38,7.54,7.51v43.45
			c0,0.89-0.72,1.62-1.62,1.62H413.4c-0.89,0-1.62-0.72-1.62-1.62V275.89z"/>
		<path class="st0" d="M509.81,432.01H413.4c-0.89,0-1.62-0.72-1.62-1.62v-49.35c0-0.89,0.72-1.62,1.62-1.62h102.34
			c0.89,0,1.62,0.72,1.62,1.62v43.45C517.35,428.65,513.98,432.01,509.81,432.01"/>
	</g>
	<path class="st1" d="M569.1,222.92v-46.28h-46.28h-46.28H215.72c-8.29,0-15.08,6.76-15.08,15.02v383.07
		c0,8.26,6.79,15.02,15.08,15.02H600.3c8.29,0,15.08-6.76,15.08-15.02V315.48V269.2v-46.28L569.1,222.92L569.1,222.92z"/>
	<rect x="522.82" y="176.63" class="st2" width="46.28" height="46.28"/>
	<rect x="476.53" y="176.63" class="st3" width="46.28" height="46.28"/>
	<rect x="522.82" y="222.92" class="st4" width="46.28" height="46.28"/>
	<rect x="569.1" y="222.92" class="st5" width="46.28" height="46.28"/>
	<rect x="569.1" y="269.2" class="st2" width="46.28" height="46.28"/>
	<g class="st6">
		<path class="st7" d="M877.51,494.36L777.12,382v110.15h-29.58V275h29.58v97.56L867.13,275h37.77l-95.67,101.97l101.02,110.47
			L877.51,494.36z"/>
		<path class="st7" d="M978.31,493.1h-27.38l-52.87-148.86l28.64-4.41l38.39,118.65l37.14-116.44h29.27L978.31,493.1z"/>
		<path class="st7" d="M1145.38,492.15l-3.15-20.14c-11.96,12.27-28.32,23.29-52.87,23.29c-27.07,0-44.06-16.37-44.06-41.86
			c0-37.45,32.1-52.24,94.73-58.85v-6.29c0-18.88-11.33-25.49-28.64-25.49c-18.25,0-35.56,5.66-51.93,12.9l-3.78-24.23
			c17.94-7.24,34.93-12.59,58.22-12.59c36.51,0,54.13,14.79,54.13,48.15v105.11L1145.38,492.15L1145.38,492.15z M1140.03,415.99
			c-55.39,5.35-67.03,20.46-67.03,35.88c0,12.27,8.18,20.14,22.34,20.14c16.37,0,32.1-8.18,44.69-21.09L1140.03,415.99
			L1140.03,415.99z"/>
		<path class="st7" d="M1210.3,492.15V269.34l28.01-4.41v227.22H1210.3z"/>
		<path class="st7" d="M1296.43,311.82c-9.76,0-17.94-7.87-17.94-17.62c0-9.76,8.18-17.94,17.94-17.94
			c9.76,0,17.62,8.18,17.62,17.94C1314.06,303.95,1306.19,311.82,1296.43,311.82z M1282.27,492.15V342.04h28.01v150.12h-28.01
			V492.15z"/>
		<path class="st7" d="M1408.65,494.67c-26.44,0-43.75-9.44-43.75-39.65v-89.38h-22.66v-23.6h22.66V292l27.38-4.09v54.13h32.42
			l3.78,23.6h-36.19v84.34c0,12.27,5.04,19.83,20.77,19.83c5.04,0,9.44-0.31,12.9-0.94l3.78,23.92
			C1425.02,493.73,1418.41,494.67,1408.65,494.67z"/>
		<path class="st7" d="M1516.77,495.3c-39.02,0-69.55-23.6-69.55-78.68c0-48.15,28.32-77.73,66.09-77.73
			c43.75,0,63.89,33.67,63.89,75.22v5.98h-101.97c1.26,34.93,17.62,51.3,43.74,51.3c21.72,0,37.45-8.5,53.82-21.4l4.09,25.18
			C1560.83,487.75,1541.64,495.3,1516.77,495.3z M1476.49,399h72.39c-3.46-24.23-14.16-38.08-35.88-38.08
			C1495.69,360.92,1480.9,373.51,1476.49,399z"/>
		<path class="st7" d="M1662.62,494.67c-26.44,0-43.75-9.44-43.75-39.65v-89.38h-22.66v-23.6h22.66V292l27.38-4.09v54.13h32.42
			l3.78,23.6h-36.19v84.34c0,12.27,5.04,19.83,20.77,19.83c5.04,0,9.44-0.31,12.9-0.94l3.78,23.92
			C1678.98,493.73,1672.38,494.67,1662.62,494.67z"/>
		<path class="st7" d="M1764.45,495.3c-19.83,0-41.86-6.92-54.76-14.16l4.09-26.44c14.16,9.76,32.42,17.31,52.87,17.31
			c19.2,0,30.53-7.24,30.53-19.83c0-13.85-8.5-18.88-35.56-25.49c-35.25-8.81-49.41-19.51-49.41-46.26
			c0-23.92,20.14-41.54,52.87-41.54c18.57,0,35.25,3.78,49.41,10.07l-4.41,26.44c-13.22-7.55-29.9-12.9-45.63-12.9
			c-16.99,0-25.81,6.61-25.81,17.31c0,10.07,7.55,15.74,31.16,21.71c37.14,9.44,53.82,20.14,53.82,48.78
			C1823.61,477.68,1803.16,495.3,1764.45,495.3z"/>
		<path class="st7" d="M1916.36,493.1h-27.38l-52.87-148.86l28.64-4.41l38.4,118.65l37.14-116.44h29.27L1916.36,493.1z"/>
		<path class="st7" d="M2051.29,495.3c-39.02,0-69.55-23.6-69.55-78.68c0-48.15,28.32-77.73,66.09-77.73
			c43.74,0,63.89,33.67,63.89,75.22v5.98h-101.97c1.26,34.93,17.62,51.3,43.74,51.3c21.72,0,37.45-8.5,53.82-21.4l4.09,25.18
			C2095.35,487.75,2076.15,495.3,2051.29,495.3z M2011,399h72.39c-3.46-24.23-14.16-38.08-35.88-38.08
			C2030.2,360.92,2015.41,373.51,2011,399z"/>
		<path class="st7" d="M2170.78,403.4v88.75h-28.01V342.04h22.35l4.72,30.53c10.7-17,28.01-32.42,52.56-33.67l4.41,26.75
			C2201.94,366.9,2180.86,383.58,2170.78,403.4z"/>
	</g>
	<g>
		<path class="st0" d="M834.12,490.79c-57.27,0-93.59-42.51-93.59-105.39c0-63.18,36.9-105.99,94.18-105.99
			c57.57,0,93.59,42.51,93.59,105.39C928.3,447.69,891.69,490.79,834.12,490.79z M834.42,304.8c-40.45,0-65.24,31.29-65.24,80.3
			s25.09,80.3,65.24,80.3c40.45,0,65.24-31.29,65.24-80.3S874.57,304.8,834.42,304.8z"/>
		<path class="st0" d="M1022.9,488.72c-13.88,0-26.57-2.66-35.43-6.2v55.5l-26.28,3.84V346.13h20.96l3.25,20.37
			c10.63-12.4,25.09-23.32,45.76-23.32c30.41,0,55.5,22.44,55.5,69.38C1086.67,463.92,1057.15,488.72,1022.9,488.72z M1027.03,366.5
			c-15.94,0-28.34,9.74-39.56,24.8v67.61c10.63,5.31,19.19,7.68,34.25,7.68c22.14,0,38.38-18.01,38.38-52.84
			C1060.1,383.03,1046.22,366.5,1027.03,366.5z"/>
		<path class="st0" d="M1179.3,489.9c-36.61,0-65.24-22.14-65.24-73.81c0-45.17,26.57-72.92,62-72.92
			c41.04,0,59.93,31.59,59.93,70.56v5.61h-95.65c1.18,32.77,16.53,48.12,41.04,48.12c20.37,0,35.13-7.97,50.48-20.08l3.84,23.62
			C1220.63,482.82,1202.63,489.9,1179.3,489.9z M1141.51,399.56h67.9c-3.25-22.73-13.28-35.72-33.66-35.72
			C1159.52,363.84,1145.65,375.65,1141.51,399.56z"/>
		<path class="st0" d="M1359.91,486.95V391c0-14.47-6.2-24.21-21.55-24.21c-13.88,0-28.05,9.15-40.74,22.73v97.42h-26.28V346.13
			h20.96l3.25,20.37c13.29-12.11,29.82-23.32,49.89-23.32c26.57,0,40.74,15.94,40.74,41.33v102.44H1359.91z"/>
		<path class="st0" d="M1553.58,486.95h-57.86v-203.7h59.04c70.85,0,107.17,41.92,107.17,101.56
			C1661.92,445.32,1623.54,486.95,1553.58,486.95z M1555.64,308.34h-32.18v153.52h31.29c49.01,0,78.53-24.8,78.53-76.76
			C1633.29,334.02,1602.29,308.34,1555.64,308.34z"/>
		<path class="st0" d="M1780.08,486.95l-2.95-18.89c-11.22,11.51-26.57,21.85-49.6,21.85c-25.39,0-41.33-15.35-41.33-39.26
			c0-35.13,30.11-49.01,88.86-55.21v-5.9c0-17.71-10.63-23.91-26.87-23.91c-17.12,0-33.36,5.31-48.71,12.1l-3.54-22.73
			c16.83-6.79,32.77-11.81,54.62-11.81c34.25,0,50.78,13.88,50.78,45.17v98.6L1780.08,486.95L1780.08,486.95z M1775.06,415.51
			c-51.96,5.02-62.88,19.19-62.88,33.66c0,11.51,7.68,18.89,20.96,18.89c15.35,0,30.11-7.68,41.92-19.78V415.51z"/>
		<path class="st0" d="M1889.91,489.31c-24.8,0-41.04-8.86-41.04-37.2v-83.84h-21.26v-22.14h21.26v-46.94l25.68-3.84v50.78h30.41
			l3.54,22.14h-33.95v79.12c0,11.51,4.72,18.6,19.48,18.6c4.72,0,8.86-0.29,12.1-0.89l3.54,22.44
			C1905.26,488.43,1899.06,489.31,1889.91,489.31z"/>
		<path class="st0" d="M2027.89,486.95l-2.95-18.89c-11.22,11.51-26.57,21.85-49.6,21.85c-25.39,0-41.33-15.35-41.33-39.26
			c0-35.13,30.11-49.01,88.86-55.21v-5.9c0-17.71-10.63-23.91-26.87-23.91c-17.12,0-33.36,5.31-48.71,12.1l-3.54-22.73
			c16.83-6.79,32.77-11.81,54.62-11.81c34.25,0,50.78,13.88,50.78,45.17v98.6L2027.89,486.95L2027.89,486.95z M2022.87,415.51
			c-51.96,5.02-62.88,19.19-62.88,33.66c0,11.51,7.68,18.89,20.96,18.89c15.35,0,30.11-7.68,41.92-19.78V415.51z"/>
	</g>
</g>
</svg>
