<?xml version="1.0" encoding="utf-8"?>
<!-- Generator: Adobe Illustrator 27.5.0, SVG Export Plug-In . SVG Version: 6.00 Build 0)  -->
<svg version="1.1" id="Layer_1" xmlns="http://www.w3.org/2000/svg" xmlns:xlink="http://www.w3.org/1999/xlink" x="0px" y="0px"
	 viewBox="0 0 2250.71 796.54" style="enable-background:new 0 0 2250.71 796.54;" xml:space="preserve">
<style type="text/css">
	.st0{fill:#335D94;}
	.st1{fill:#6685AF;}
	.st2{fill:#4C71A1;}
	.st3{fill:#8099BC;}
	.st4{fill:#003479;}
	.st5{fill:#FFFFFF;}
</style>
<g>
	<rect x="522.82" y="175.02" class="st0" width="46.28" height="46.28"/>
	<rect x="476.53" y="175.02" class="st1" width="46.28" height="46.28"/>
	<rect x="522.82" y="221.31" class="st2" width="46.28" height="46.28"/>
	<rect x="569.1" y="221.31" class="st3" width="46.28" height="46.28"/>
	<rect x="569.1" y="267.59" class="st0" width="46.28" height="46.28"/>
	<path class="st4" d="M569.1,267.59h-46.28v-46.28h-46.28v-46.28H215.72c-8.29,0-15.08,6.76-15.08,15.02v383.07
		c0,8.26,6.79,15.02,15.08,15.02H600.3c8.29,0,15.08-6.76,15.08-15.02V313.88H569.1V267.59z"/>
	<g>
		<path class="st5" d="M306.21,325.25v-37.56c0-8.26,6.79-15.02,15.08-15.02h37.7v52.58H306.21z"/>
		<path class="st5" d="M306.21,377.82h52.78v105.16c0,4.13-3.39,7.51-7.54,7.51h-37.7c-4.15,0-7.54-3.38-7.54-7.51V377.82z"/>
		<path class="st5" d="M411.78,272.67h98.03c4.15,0,7.54,3.38,7.54,7.51v45.07H411.78V272.67z"/>
		<path class="st5" d="M509.81,430.4h-98.03v-52.58h105.57v45.07C517.35,427.04,513.97,430.4,509.81,430.4"/>
	</g>
</g>
<g>
	<path class="st4" d="M883.5,424.52h-82.83l-22.7,61.02h-28.89l79.59-204.28h27.71l78.41,200.44l-27.41,5.9L883.5,424.52z
		 M809.81,400.05h64.55l-32.42-86.37L809.81,400.05z"/>
	<path class="st4" d="M1013.44,486.42h-25.64l-49.52-139.43l26.82-4.13l35.96,111.13l34.78-109.06h27.41L1013.44,486.42z"/>
	<path class="st4" d="M1143.43,488.48c-37.44,0-64.55-26.82-64.55-73.1c0-46.28,27.12-73.4,64.55-73.4
		c37.73,0,65.44,27.12,65.44,73.4C1208.87,461.66,1181.16,488.48,1143.43,488.48z M1143.43,363.79c-25.35,0-38.03,22.11-38.03,51.58
		c0,28.89,13.26,51.29,38.03,51.29c25.94,0,38.91-21.81,38.91-51.29C1182.34,386.49,1168.78,363.79,1143.43,363.79z"/>
	<path class="st4" d="M1257.51,316.63c-9.14,0-16.8-7.37-16.8-16.51s7.66-16.8,16.8-16.8s16.51,7.66,16.51,16.8
		S1266.64,316.63,1257.51,316.63z M1244.24,485.53v-140.6h26.23v140.6H1244.24z"/>
	<path class="st4" d="M1401.24,485.53v-95.8c0-14.44-6.19-24.17-21.52-24.17c-13.85,0-28,9.14-40.68,22.7v97.27h-26.23v-140.6h20.93
		l3.24,20.34c13.26-12.09,29.77-23.29,49.82-23.29c26.53,0,40.68,15.92,40.68,41.27v102.29H1401.24z"/>
	<path class="st4" d="M1592.7,343.16c13.85,0,26.53,2.65,35.37,6.19v-72.51l26.23-4.13v212.82h-20.93l-3.24-20.34
		c-10.61,12.67-25.06,23.29-45.69,23.29c-30.36,0-55.42-22.11-55.42-69.27C1529.03,367.92,1558.51,343.16,1592.7,343.16z
		 M1588.28,465.19c16.21,0,28.59-9.73,39.79-24.76v-67.21c-10.91-5.6-19.46-7.96-34.49-7.96c-22.11,0-38.03,17.98-38.03,52.76
		C1555.56,448.98,1569.42,465.19,1588.28,465.19z"/>
	<path class="st4" d="M1776.76,485.53l-2.95-18.87c-11.2,11.5-26.53,21.81-49.52,21.81c-25.35,0-41.27-15.33-41.27-39.2
		c0-35.08,30.07-48.93,88.73-55.12v-5.89c0-17.69-10.61-23.88-26.82-23.88c-17.1,0-33.31,5.31-48.64,12.09l-3.54-22.7
		c16.8-6.78,32.72-11.79,54.53-11.79c34.19,0,50.7,13.85,50.7,45.1v98.45H1776.76z M1771.75,414.2
		c-51.88,5.01-62.79,19.16-62.79,33.6c0,11.5,7.66,18.87,20.93,18.87c15.33,0,30.07-7.66,41.86-19.75V414.2z"/>
	<path class="st4" d="M1888.41,487.89c-24.76,0-40.97-8.84-40.97-37.14v-83.71h-21.22v-22.11h21.22v-46.87l25.65-3.83v50.7h30.36
		l3.54,22.11h-33.9v79c0,11.5,4.72,18.57,19.46,18.57c4.72,0,8.84-0.29,12.08-0.88l3.54,22.4
		C1903.74,487.01,1897.55,487.89,1888.41,487.89z"/>
	<path class="st4" d="M2025.18,485.53l-2.95-18.87c-11.2,11.5-26.53,21.81-49.52,21.81c-25.35,0-41.27-15.33-41.27-39.2
		c0-35.08,30.07-48.93,88.73-55.12v-5.89c0-17.69-10.61-23.88-26.82-23.88c-17.1,0-33.31,5.31-48.64,12.09l-3.54-22.7
		c16.8-6.78,32.72-11.79,54.53-11.79c34.19,0,50.7,13.85,50.7,45.1v98.45H2025.18z M2020.17,414.2
		c-51.88,5.01-62.79,19.16-62.79,33.6c0,11.5,7.66,18.87,20.93,18.87c15.33,0,30.07-7.66,41.86-19.75V414.2z"/>
</g>
</svg>
