<?xml version="1.0" encoding="UTF-8"?>
<svg id="a" xmlns="http://www.w3.org/2000/svg" version="1.1" viewBox="0 0 2692.91 799.37">
  <!-- Generator: Adobe Illustrator 29.5.1, SVG Export Plug-In . SVG Version: 2.1.0 Build 141)  -->
  <defs>
    <style>
      .st0, .st1, .st2, .st3, .st4 {
        fill: #fff;
      }

      .st1 {
        opacity: .6;
      }

      .st1, .st2, .st3, .st4 {
        isolation: isolate;
      }

      .st2 {
        opacity: .5;
      }

      .st3 {
        opacity: .7;
      }

      .st5 {
        fill: none;
        stroke: #fff;
        stroke-miterlimit: 10;
        stroke-width: 2px;
      }

      .st4 {
        opacity: .8;
      }
    </style>
  </defs>
  <path class="st0" d="M307.82,326.69c-.89,0-1.62-.72-1.62-1.62v-35.94c0-8.26,6.79-15.02,15.08-15.02h36.09c.89,0,1.62.72,1.62,1.62v49.35c0,.89-.72,1.62-1.62,1.62h-49.55Z"/>
  <path class="st0" d="M307.82,379.27h49.55c.89,0,1.62.72,1.62,1.62v103.54c0,4.13-3.39,7.51-7.54,7.51h-37.7c-4.15,0-7.54-3.38-7.54-7.51v-103.54c0-.89.72-1.62,1.62-1.62h0Z"/>
  <path class="st0" d="M411.78,275.73c0-.89.72-1.62,1.62-1.62h96.42c4.15,0,7.54,3.38,7.54,7.51v43.45c0,.89-.72,1.62-1.62,1.62h-102.34c-.89,0-1.62-.72-1.62-1.62v-49.35h0Z"/>
  <path class="st0" d="M509.81,431.85h-96.42c-.89,0-1.62-.72-1.62-1.62v-49.35c0-.89.72-1.62,1.62-1.62h102.34c.89,0,1.62.72,1.62,1.62v43.45c0,4.15-3.38,7.51-7.54,7.51"/>
  <path class="st5" d="M569.1,222.76v-46.28H215.72c-8.29,0-15.08,6.76-15.08,15.02v383.07c0,8.26,6.79,15.02,15.08,15.02h384.59c8.29,0,15.08-6.76,15.08-15.02V222.76h-46.29Z"/>
  <rect class="st4" x="522.82" y="176.47" width="46.28" height="46.28"/>
  <rect class="st1" x="476.53" y="176.47" width="46.28" height="46.28"/>
  <rect class="st3" x="522.82" y="222.76" width="46.28" height="46.28"/>
  <rect class="st2" x="569.1" y="222.76" width="46.28" height="46.28"/>
  <rect class="st4" x="569.1" y="269.04" width="46.28" height="46.28"/>
  <path class="st0" d="M834.64,490.63c-57.32,0-93.67-42.55-93.67-105.49s36.94-106.08,94.26-106.08,93.67,42.55,93.67,105.49-36.64,106.08-94.26,106.08h0ZM834.94,304.47c-40.48,0-65.3,31.32-65.3,80.37s25.12,80.37,65.3,80.37,65.3-31.32,65.3-80.37-25.12-80.37-65.3-80.37ZM793.87,260.44v-29.84h29.25v29.84h-29.25ZM846.76,260.44v-29.84h29.25v29.84h-29.25Z"/>
  <path class="st0" d="M1027.59,488.56c-13.89,0-26.59-2.66-35.46-6.21v55.55l-26.3,3.84v-195.91h20.98l3.25,20.39c10.64-12.41,25.12-23.34,45.8-23.34,30.44,0,55.55,22.46,55.55,69.44,0,51.42-29.55,76.24-63.83,76.24h0ZM1031.73,366.23c-15.96,0-28.37,9.75-39.59,24.82v67.67c10.64,5.32,19.21,7.68,34.28,7.68,22.16,0,38.41-18.02,38.41-52.89,0-30.73-13.89-47.28-33.09-47.28h-.01Z"/>
  <path class="st0" d="M1186.56,488.56c-13.89,0-26.59-2.66-35.46-6.21v55.55l-26.3,3.84v-195.91h20.98l3.25,20.39c10.64-12.41,25.12-23.34,45.8-23.34,30.44,0,55.55,22.46,55.55,69.44,0,51.42-29.55,76.24-63.83,76.24h0ZM1190.7,366.23c-15.96,0-28.37,9.75-39.59,24.82v67.67c10.64,5.32,19.21,7.68,34.28,7.68,22.16,0,38.41-18.02,38.41-52.89,0-30.73-13.89-47.28-33.09-47.28h-.01Z"/>
  <path class="st0" d="M1372.42,486.79v-96.03c0-14.48-6.21-24.23-21.57-24.23-13.89,0-28.07,9.16-40.78,22.75v97.51h-26.3v-140.95h20.98l3.25,20.39c13.3-12.12,29.84-23.34,49.94-23.34,26.59,0,40.78,15.96,40.78,41.37v102.53h-26.3,0Z"/>
  <path class="st0" d="M1524.89,486.79l-2.96-18.91c-11.23,11.52-26.59,21.87-49.64,21.87-25.41,0-41.37-15.37-41.37-39.3,0-35.16,30.14-49.05,88.94-55.26v-5.91c0-17.73-10.64-23.93-26.89-23.93-17.14,0-33.39,5.32-48.75,12.12l-3.55-22.75c16.84-6.8,32.8-11.82,54.67-11.82,34.28,0,50.82,13.89,50.82,45.21v98.69h-21.27ZM1519.87,415.28c-52.01,5.02-62.94,19.21-62.94,33.69,0,11.52,7.68,18.91,20.98,18.91,15.37,0,30.14-7.68,41.96-19.8v-32.8h0Z"/>
  <path class="st0" d="M1707.79,344.07c13.89,0,26.59,2.66,35.46,6.21v-72.69l26.3-4.14v213.34h-20.98l-3.25-20.39c-10.64,12.71-25.12,23.34-45.8,23.34-30.44,0-55.55-22.16-55.55-69.44,0-51.42,29.55-76.24,63.83-76.24h0ZM1703.36,466.4c16.25,0,28.66-9.75,39.89-24.82v-67.37c-10.93-5.61-19.5-7.98-34.57-7.98-22.16,0-38.12,18.02-38.12,52.89,0,31.03,13.89,47.28,32.8,47.28h0Z"/>
  <path class="st0" d="M1896.31,486.79l-2.96-18.91c-11.23,11.52-26.59,21.87-49.64,21.87-25.41,0-41.37-15.37-41.37-39.3,0-35.16,30.14-49.05,88.94-55.26v-5.91c0-17.73-10.64-23.93-26.89-23.93-17.14,0-33.39,5.32-48.75,12.12l-3.55-22.75c16.84-6.8,32.8-11.82,54.67-11.82,34.28,0,50.82,13.89,50.82,45.21v98.69h-21.27,0ZM1891.29,415.28c-52.01,5.02-62.94,19.21-62.94,33.69,0,11.52,7.68,18.91,20.98,18.91,15.37,0,30.14-7.68,41.96-19.8v-32.8h0Z"/>
  <path class="st0" d="M2006.22,489.15c-24.82,0-41.07-8.87-41.07-37.23v-83.92h-21.28v-22.16h21.28v-46.98l25.71-3.84v50.82h30.44l3.55,22.16h-33.98v79.19c0,11.52,4.73,18.62,19.5,18.62,4.73,0,8.87-.3,12.12-.89l3.55,22.46c-4.43.89-10.64,1.77-19.8,1.77h-.02Z"/>
  <path class="st0" d="M2143.33,486.79l-2.96-18.91c-11.23,11.52-26.59,21.87-49.64,21.87-25.41,0-41.37-15.37-41.37-39.3,0-35.16,30.14-49.05,88.94-55.26v-5.91c0-17.73-10.64-23.93-26.89-23.93-17.14,0-33.39,5.32-48.75,12.12l-3.55-22.75c16.84-6.8,32.8-11.82,54.67-11.82,34.28,0,50.82,13.89,50.82,45.21v98.69h-21.27ZM2138.31,415.28c-52.01,5.02-62.94,19.21-62.94,33.69,0,11.52,7.68,18.91,20.98,18.91,15.37,0,30.14-7.68,41.96-19.8v-32.8h0Z"/>
  <path class="st0" d="M2214.62,308.73v-121.22h32.44c18.53,0,32.99,5,43.37,15.01,10.38,10.01,15.57,25.02,15.57,45.04s-5.13,35.4-15.38,45.78c-10.26,10.26-24.4,15.38-42.44,15.38h-33.56ZM2236.12,291.31h9.45c12.23,0,21.69-3.52,28.36-10.56,6.67-7.17,10.01-18.23,10.01-33.18s-3.34-25.64-10.01-32.44-16.13-10.19-28.36-10.19h-9.45v86.37ZM2330.46,308.73v-121.22h73.03v18.16h-51.53v30.95h43.56v18.16h-43.56v35.77h53.38v18.16h-74.88v.02ZM2451.88,308.73l-37.81-121.22h22.8l17.05,60.98c1.98,6.8,3.77,13.34,5.38,19.65s3.4,12.91,5.38,19.83h.74c2.1-6.92,3.89-13.53,5.38-19.83,1.61-6.3,3.34-12.85,5.19-19.65l16.87-60.98h22.06l-37.63,121.22h-25.41Z"/>
</svg>