<?xml version="1.0" encoding="utf-8"?>
<!-- Generator: Adobe Illustrator 30.2.1, SVG Export Plug-In . SVG Version: 9.03 Build 0)  -->
<svg version="1.0" id="Layer_1" xmlns="http://www.w3.org/2000/svg" xmlns:xlink="http://www.w3.org/1999/xlink" x="0px" y="0px"
	 viewBox="0 0 2250.71 796.54" style="enable-background:new 0 0 2250.71 796.54;" xml:space="preserve">
<style type="text/css">
	.st0{fill:#FFFFFF;}
	.st1{fill:none;stroke:#FFFFFF;stroke-width:2;stroke-miterlimit:10;}
	.st2{opacity:0.8;fill:#FFFFFF;enable-background:new    ;}
	.st3{opacity:0.6;fill:#FFFFFF;enable-background:new    ;}
	.st4{opacity:0.7;fill:#FFFFFF;enable-background:new    ;}
	.st5{opacity:0.5;fill:#FFFFFF;enable-background:new    ;}
	.st6{display:none;}
	.st7{display:inline;fill:#FFFFFF;}
</style>
<g id="Layer_1_00000057868473650783640590000012791001373175853759_">
	<g>
		<path class="st0" d="M307.82,325.44c-0.89,0-1.62-0.72-1.62-1.62v-35.94c0-8.26,6.79-15.02,15.08-15.02h36.09
			c0.89,0,1.62,0.72,1.62,1.62v49.35c0,0.89-0.72,1.62-1.62,1.62h-49.55V325.44z"/>
		<path class="st0" d="M307.82,378.01h49.55c0.89,0,1.62,0.72,1.62,1.62v103.54c0,4.13-3.39,7.51-7.54,7.51h-37.7
			c-4.15,0-7.54-3.38-7.54-7.51V379.63C306.21,378.74,306.93,378.01,307.82,378.01z"/>
		<path class="st0" d="M411.78,274.47c0-0.89,0.72-1.62,1.62-1.62h96.42c4.15,0,7.54,3.38,7.54,7.51v43.45
			c0,0.89-0.72,1.62-1.62,1.62H413.4c-0.89,0-1.62-0.72-1.62-1.62V274.47z"/>
		<path class="st0" d="M509.81,430.59H413.4c-0.89,0-1.62-0.72-1.62-1.62v-49.35c0-0.89,0.72-1.62,1.62-1.62h102.34
			c0.89,0,1.62,0.72,1.62,1.62v43.45C517.35,427.23,513.98,430.59,509.81,430.59"/>
	</g>
	<path class="st1" d="M569.1,221.5v-46.28h-46.28h-46.28H215.72c-8.29,0-15.08,6.76-15.08,15.02V573.3
		c0,8.26,6.79,15.02,15.08,15.02H600.3c8.29,0,15.08-6.76,15.08-15.02V314.07v-46.28V221.5H569.1z"/>
	<rect x="522.82" y="175.21" class="st2" width="46.28" height="46.28"/>
	<rect x="476.53" y="175.21" class="st3" width="46.28" height="46.28"/>
	<rect x="522.82" y="221.5" class="st4" width="46.28" height="46.28"/>
	<rect x="569.1" y="221.5" class="st5" width="46.28" height="46.28"/>
	<rect x="569.1" y="267.78" class="st2" width="46.28" height="46.28"/>
	<g class="st6">
		<path class="st7" d="M877.51,492.94L777.12,380.59v110.15h-29.58V273.58h29.58v97.56l90.01-97.56h37.77l-95.67,101.97
			l101.02,110.47L877.51,492.94z"/>
		<path class="st7" d="M978.31,491.68h-27.38l-52.87-148.86l28.64-4.41l38.39,118.65l37.14-116.44h29.27L978.31,491.68z"/>
		<path class="st7" d="M1145.38,490.74l-3.15-20.14c-11.96,12.27-28.32,23.29-52.87,23.29c-27.07,0-44.06-16.37-44.06-41.86
			c0-37.45,32.1-52.24,94.73-58.85v-6.29c0-18.88-11.33-25.49-28.64-25.49c-18.25,0-35.56,5.66-51.93,12.9l-3.78-24.23
			c17.94-7.24,34.93-12.59,58.22-12.59c36.51,0,54.13,14.79,54.13,48.15v105.11L1145.38,490.74L1145.38,490.74z M1140.03,414.58
			c-55.39,5.35-67.03,20.46-67.03,35.88c0,12.27,8.18,20.14,22.34,20.14c16.37,0,32.1-8.18,44.69-21.09L1140.03,414.58
			L1140.03,414.58z"/>
		<path class="st7" d="M1210.3,490.74V267.92l28.01-4.41v227.22L1210.3,490.74L1210.3,490.74z"/>
		<path class="st7" d="M1296.43,310.4c-9.76,0-17.94-7.87-17.94-17.62c0-9.76,8.18-17.94,17.94-17.94c9.76,0,17.62,8.18,17.62,17.94
			C1314.06,302.54,1306.19,310.4,1296.43,310.4z M1282.27,490.74V340.62h28.01v150.12H1282.27z"/>
		<path class="st7" d="M1408.65,493.25c-26.44,0-43.75-9.44-43.75-39.65v-89.38h-22.66v-23.6h22.66v-50.04l27.38-4.09v54.13h32.42
			l3.78,23.6h-36.19v84.34c0,12.27,5.04,19.83,20.77,19.83c5.04,0,9.44-0.31,12.9-0.94l3.78,23.92
			C1425.02,492.31,1418.41,493.25,1408.65,493.25z"/>
		<path class="st7" d="M1516.77,493.88c-39.02,0-69.55-23.6-69.55-78.68c0-48.15,28.32-77.73,66.09-77.73
			c43.75,0,63.89,33.67,63.89,75.22v5.98h-101.97c1.26,34.93,17.62,51.3,43.74,51.3c21.72,0,37.45-8.5,53.82-21.4l4.09,25.18
			C1560.83,486.33,1541.64,493.88,1516.77,493.88z M1476.49,397.58h72.39c-3.46-24.23-14.16-38.08-35.88-38.08
			C1495.69,359.5,1480.9,372.09,1476.49,397.58z"/>
		<path class="st7" d="M1662.62,493.25c-26.44,0-43.75-9.44-43.75-39.65v-89.38h-22.66v-23.6h22.66v-50.04l27.38-4.09v54.13h32.42
			l3.78,23.6h-36.19v84.34c0,12.27,5.04,19.83,20.77,19.83c5.04,0,9.44-0.31,12.9-0.94l3.78,23.92
			C1678.98,492.31,1672.38,493.25,1662.62,493.25z"/>
		<path class="st7" d="M1764.45,493.88c-19.83,0-41.86-6.92-54.76-14.16l4.09-26.44c14.16,9.76,32.42,17.31,52.87,17.31
			c19.2,0,30.53-7.24,30.53-19.83c0-13.85-8.5-18.88-35.56-25.49c-35.25-8.81-49.41-19.51-49.41-46.26
			c0-23.92,20.14-41.54,52.87-41.54c18.57,0,35.25,3.78,49.41,10.07l-4.41,26.44c-13.22-7.55-29.9-12.9-45.63-12.9
			c-16.99,0-25.81,6.61-25.81,17.31c0,10.07,7.55,15.74,31.16,21.71c37.14,9.44,53.82,20.14,53.82,48.78
			C1823.61,476.26,1803.16,493.88,1764.45,493.88z"/>
		<path class="st7" d="M1916.36,491.68h-27.38l-52.87-148.86l28.64-4.41l38.4,118.65l37.14-116.44h29.27L1916.36,491.68z"/>
		<path class="st7" d="M2051.29,493.88c-39.02,0-69.55-23.6-69.55-78.68c0-48.15,28.32-77.73,66.09-77.73
			c43.74,0,63.89,33.67,63.89,75.22v5.98h-101.97c1.26,34.93,17.62,51.3,43.74,51.3c21.72,0,37.45-8.5,53.82-21.4l4.09,25.18
			C2095.35,486.33,2076.15,493.88,2051.29,493.88z M2011,397.58h72.39c-3.46-24.23-14.16-38.08-35.88-38.08
			C2030.2,359.5,2015.41,372.09,2011,397.58z"/>
		<path class="st7" d="M2170.78,401.99v88.75h-28.01V340.62h22.35l4.72,30.53c10.7-17,28.01-32.42,52.56-33.67l4.41,26.75
			C2201.94,365.48,2180.86,382.16,2170.78,401.99z"/>
	</g>
	<g>
		<path class="st0" d="M883.5,424.52h-82.83l-22.7,61.02h-28.89l79.59-204.28h27.71l78.41,200.44l-27.41,5.9L883.5,424.52z
			 M809.81,400.05h64.55l-32.42-86.37L809.81,400.05z"/>
		<path class="st0" d="M1013.44,486.42H987.8l-49.52-139.43l26.82-4.13l35.96,111.13l34.78-109.06h27.41L1013.44,486.42z"/>
		<path class="st0" d="M1143.43,488.48c-37.44,0-64.55-26.82-64.55-73.1s27.12-73.4,64.55-73.4c37.73,0,65.44,27.12,65.44,73.4
			C1208.87,461.66,1181.16,488.48,1143.43,488.48z M1143.43,363.79c-25.35,0-38.03,22.11-38.03,51.58
			c0,28.89,13.26,51.29,38.03,51.29c25.94,0,38.91-21.81,38.91-51.29C1182.34,386.49,1168.78,363.79,1143.43,363.79z"/>
		<path class="st0" d="M1257.51,316.63c-9.14,0-16.8-7.37-16.8-16.51s7.66-16.8,16.8-16.8s16.51,7.66,16.51,16.8
			S1266.64,316.63,1257.51,316.63z M1244.24,485.53v-140.6h26.23v140.6H1244.24z"/>
		<path class="st0" d="M1401.24,485.53v-95.8c0-14.44-6.19-24.17-21.52-24.17c-13.85,0-28,9.14-40.68,22.7v97.27h-26.23v-140.6
			h20.93l3.24,20.34c13.26-12.09,29.77-23.29,49.82-23.29c26.53,0,40.68,15.92,40.68,41.27v102.29L1401.24,485.53L1401.24,485.53z"
			/>
		<path class="st0" d="M1592.7,343.16c13.85,0,26.53,2.65,35.37,6.19v-72.51l26.23-4.13v212.82h-20.93l-3.24-20.34
			c-10.61,12.67-25.06,23.29-45.69,23.29c-30.36,0-55.42-22.11-55.42-69.27C1529.03,367.92,1558.51,343.16,1592.7,343.16z
			 M1588.28,465.19c16.21,0,28.59-9.73,39.79-24.76v-67.21c-10.91-5.6-19.46-7.96-34.49-7.96c-22.11,0-38.03,17.98-38.03,52.76
			C1555.56,448.98,1569.42,465.19,1588.28,465.19z"/>
		<path class="st0" d="M1776.76,485.53l-2.95-18.87c-11.2,11.5-26.53,21.81-49.52,21.81c-25.35,0-41.27-15.33-41.27-39.2
			c0-35.08,30.07-48.93,88.73-55.12v-5.89c0-17.69-10.61-23.88-26.82-23.88c-17.1,0-33.31,5.31-48.64,12.09l-3.54-22.7
			c16.8-6.78,32.72-11.79,54.53-11.79c34.19,0,50.7,13.85,50.7,45.1v98.45L1776.76,485.53L1776.76,485.53z M1771.75,414.2
			c-51.88,5.01-62.79,19.16-62.79,33.6c0,11.5,7.66,18.87,20.93,18.87c15.33,0,30.07-7.66,41.86-19.75V414.2z"/>
		<path class="st0" d="M1888.41,487.89c-24.76,0-40.97-8.84-40.97-37.14v-83.71h-21.22v-22.11h21.22v-46.87l25.65-3.83v50.7h30.36
			l3.54,22.11h-33.9v79c0,11.5,4.72,18.57,19.46,18.57c4.72,0,8.84-0.29,12.08-0.88l3.54,22.4
			C1903.74,487.01,1897.55,487.89,1888.41,487.89z"/>
		<path class="st0" d="M2025.18,485.53l-2.95-18.87c-11.2,11.5-26.53,21.81-49.52,21.81c-25.35,0-41.27-15.33-41.27-39.2
			c0-35.08,30.07-48.93,88.73-55.12v-5.89c0-17.69-10.61-23.88-26.82-23.88c-17.1,0-33.31,5.31-48.64,12.09l-3.54-22.7
			c16.8-6.78,32.72-11.79,54.53-11.79c34.19,0,50.7,13.85,50.7,45.1v98.45L2025.18,485.53L2025.18,485.53z M2020.17,414.2
			c-51.88,5.01-62.79,19.16-62.79,33.6c0,11.5,7.66,18.87,20.93,18.87c15.33,0,30.07-7.66,41.86-19.75V414.2z"/>
	</g>
</g>
</svg>
