<?xml version="1.0" encoding="utf-8"?>
<!-- Generator: Adobe Illustrator 23.0.6, SVG Export Plug-In . SVG Version: 6.00 Build 0)  -->
<svg version="1.1" id="Layer_1" xmlns="http://www.w3.org/2000/svg" xmlns:xlink="http://www.w3.org/1999/xlink" x="0px" y="0px"
	 viewBox="0 0 26.2 26.2" style="enable-background:new 0 0 26.2 26.2;" xml:space="preserve">
<style type="text/css">
	.st0{clip-path:url(#SVGID_2_);}
	.st1{clip-path:url(#SVGID_4_);enable-background:new    ;}
	.st2{clip-path:url(#SVGID_6_);}
	.st3{clip-path:url(#SVGID_8_);}
	.st4{clip-path:url(#SVGID_10_);fill:#E97025;}
	.st5{clip-path:url(#SVGID_12_);}
	.st6{clip-path:url(#SVGID_14_);fill:#E97025;}
	.st7{clip-path:url(#SVGID_16_);}
	.st8{clip-path:url(#SVGID_18_);fill:#E97025;}
	.st9{clip-path:url(#SVGID_20_);}
	.st10{clip-path:url(#SVGID_22_);fill:#E97025;}
	.st11{clip-path:url(#SVGID_24_);}
	.st12{clip-path:url(#SVGID_26_);fill:#E97025;}
	.st13{clip-path:url(#SVGID_28_);}
	.st14{clip-path:url(#SVGID_30_);fill:#E97025;}
</style>
<g>
	<g>
		<g>
			<defs>
				<rect id="SVGID_1_" x="1.1" y="1.1" width="24" height="24"/>
			</defs>
			<clipPath id="SVGID_2_">
				<use xlink:href="#SVGID_1_"  style="overflow:visible;"/>
			</clipPath>
			<g class="st0">
				<g>
					<defs>
						<rect id="SVGID_3_" x="1.1" y="1.1" width="24" height="24"/>
					</defs>
					<clipPath id="SVGID_4_">
						<use xlink:href="#SVGID_3_"  style="overflow:visible;"/>
					</clipPath>
					<g class="st1">
						<g>
							<g>
								<defs>
									<rect id="SVGID_5_" x="-0.9" y="0.1" width="26" height="25"/>
								</defs>
								<clipPath id="SVGID_6_">
									<use xlink:href="#SVGID_5_"  style="overflow:visible;"/>
								</clipPath>
								<g class="st2">
									<g>
										<defs>
											<path id="SVGID_7_" d="M13.1,25.1c-3.2,0-6.2-1.2-8.5-3.5c-4.7-4.7-4.7-12.3,0-17c2.3-2.3,5.3-3.5,8.5-3.5
												s6.2,1.2,8.5,3.5c2.3,2.3,3.5,5.3,3.5,8.5c0,3.2-1.2,6.2-3.5,8.5C19.3,23.8,16.3,25.1,13.1,25.1 M13.1,3.1
												c-2.7,0-5.2,1-7.1,2.9C2.1,9.9,2.1,16.2,6,20.1c1.9,1.9,4.4,2.9,7.1,2.9s5.2-1,7.1-2.9c1.9-1.9,2.9-4.4,2.9-7.1
												S22,7.9,20.2,6C18.3,4.1,15.8,3.1,13.1,3.1"/>
										</defs>
										<clipPath id="SVGID_8_">
											<use xlink:href="#SVGID_7_"  style="overflow:visible;"/>
										</clipPath>
										<g class="st3">
											<g>
												<defs>
													<rect id="SVGID_9_" x="1.1" y="1.1" width="24" height="24"/>
												</defs>
												<clipPath id="SVGID_10_">
													<use xlink:href="#SVGID_9_"  style="overflow:visible;"/>
												</clipPath>
												<rect x="-3.9" y="-3.9" class="st4" width="34" height="34"/>
											</g>
										</g>
									</g>
								</g>
							</g>
						</g>
					</g>
				</g>
			</g>
		</g>
	</g>
	<g>
		<g>
			<defs>
				<path id="SVGID_11_" d="M13.1,20.1c-0.5,0-1-0.5-1-1.1v-6.8c0-0.6,0.5-1.1,1-1.1s1,0.5,1,1.1V19C14.1,19.6,13.6,20.1,13.1,20.1"
					/>
			</defs>
			<clipPath id="SVGID_12_">
				<use xlink:href="#SVGID_11_"  style="overflow:visible;"/>
			</clipPath>
			<g class="st5">
				<g>
					<defs>
						<rect id="SVGID_13_" x="1.1" y="1.1" width="24" height="24"/>
					</defs>
					<clipPath id="SVGID_14_">
						<use xlink:href="#SVGID_13_"  style="overflow:visible;"/>
					</clipPath>
					<rect x="7.1" y="6.1" class="st6" width="12" height="19"/>
				</g>
			</g>
		</g>
	</g>
	<g>
		<g>
			<defs>
				<path id="SVGID_15_" d="M13.1,13.1h-2c-0.6,0-1-0.5-1-1s0.4-1,1-1h2c0.5,0,1,0.5,1,1S13.6,13.1,13.1,13.1"/>
			</defs>
			<clipPath id="SVGID_16_">
				<use xlink:href="#SVGID_15_"  style="overflow:visible;"/>
			</clipPath>
			<g class="st7">
				<g>
					<defs>
						<rect id="SVGID_17_" x="1.1" y="1.1" width="24" height="24"/>
					</defs>
					<clipPath id="SVGID_18_">
						<use xlink:href="#SVGID_17_"  style="overflow:visible;"/>
					</clipPath>
					<rect x="5.1" y="6.1" class="st8" width="14" height="12"/>
				</g>
			</g>
		</g>
	</g>
	<g>
		<g>
			<defs>
				<path id="SVGID_19_" d="M11.1,13.1c-0.6,0-1-0.5-1-1s0.4-1,1-1h2c0.5,0,1,0.5,1,1s-0.5,1-1,1H11.1z"/>
			</defs>
			<clipPath id="SVGID_20_">
				<use xlink:href="#SVGID_19_"  style="overflow:visible;"/>
			</clipPath>
			<g class="st9">
				<g>
					<defs>
						<rect id="SVGID_21_" x="1.1" y="1.1" width="24" height="24"/>
					</defs>
					<clipPath id="SVGID_22_">
						<use xlink:href="#SVGID_21_"  style="overflow:visible;"/>
					</clipPath>
					<rect x="5.1" y="6.1" class="st10" width="14" height="12"/>
				</g>
			</g>
		</g>
	</g>
	<g>
		<g>
			<defs>
				<path id="SVGID_23_" d="M12.6,9.1c-0.8,0-1.5-0.7-1.5-1.5s0.7-1.5,1.5-1.5s1.5,0.7,1.5,1.5S13.4,9.1,12.6,9.1"/>
			</defs>
			<clipPath id="SVGID_24_">
				<use xlink:href="#SVGID_23_"  style="overflow:visible;"/>
			</clipPath>
			<g class="st11">
				<g>
					<defs>
						<rect id="SVGID_25_" x="1.1" y="1.1" width="24" height="24"/>
					</defs>
					<clipPath id="SVGID_26_">
						<use xlink:href="#SVGID_25_"  style="overflow:visible;"/>
					</clipPath>
					<rect x="6.1" y="1.1" class="st12" width="13" height="13"/>
				</g>
			</g>
		</g>
	</g>
	<g>
		<g>
			<defs>
				<path id="SVGID_27_" d="M15.1,20.1h-4c-0.6,0-1-0.5-1-1s0.4-1,1-1h4c0.5,0,1,0.5,1,1S15.6,20.1,15.1,20.1"/>
			</defs>
			<clipPath id="SVGID_28_">
				<use xlink:href="#SVGID_27_"  style="overflow:visible;"/>
			</clipPath>
			<g class="st13">
				<g>
					<defs>
						<rect id="SVGID_29_" x="1.1" y="1.1" width="24" height="24"/>
					</defs>
					<clipPath id="SVGID_30_">
						<use xlink:href="#SVGID_29_"  style="overflow:visible;"/>
					</clipPath>
					<rect x="5.1" y="13.1" class="st14" width="16" height="12"/>
				</g>
			</g>
		</g>
	</g>
</g>
</svg>
