<svg xmlns="http://www.w3.org/2000/svg" viewBox="0 0 64 56"><defs><style>.cls-1{fill:#ea7125;}.cls-2{fill:#444;}</style></defs><title>Asset 1</title><g id="Layer_2" data-name="Layer 2"><g id="Layer_1-2" data-name="Layer 1"><g id="Symbols"><g id="Icons-_-Illustration-_-Kasvu" data-name="Icons-/-Illustration-/-Kasvu"><g id="Group-2"><path id="Fill-574" class="cls-1" d="M52,2c-5.84.42-10,4.3-10,7a3.3,3.3,0,0,0,3,3C47.66,12,51.54,7.88,52,2ZM45,14a5.27,5.27,0,0,1-5-5c0-4.16,5.68-9,13-9h1V1c0,7.32-4.84,13-9,13Z"/><path id="Fill-575" class="cls-1" d="M22,10c.42,5.84,4.3,10,7,10a3.3,3.3,0,0,0,3-3C32,14.34,27.88,10.46,22,10Zm7,12c-4.16,0-9-5.68-9-13V8h1c7.32,0,13,4.84,13,9a5.27,5.27,0,0,1-5,5Z"/><polygon id="Fill-576" class="cls-1" points="36 30 38 30 38 9 36 9 36 30"/><path id="Fill-577" class="cls-1" d="M38,20H36a8.65,8.65,0,0,1,2.29-5.71l6-6,1.41,1.41-6,6A6.72,6.72,0,0,0,38,20"/><path id="Fill-578" class="cls-1" d="M38,28H36a6.61,6.61,0,0,0-1.71-4.29l-6-6,1.41-1.41,6,6A8.65,8.65,0,0,1,38,28"/><path id="Fill-579" class="cls-1" d="M52,40H50c0-5-5.83-9-13-9a15.7,15.7,0,0,0-10.33,3.74l-1.34-1.48A17.5,17.5,0,0,1,37,29c8.27,0,15,4.94,15,11"/><path id="Fill-580" class="cls-2" d="M29,46H27a4,4,0,0,1,4-4H42a2,2,0,0,0,0-4H32.82l-11-4H13V32h9.18l11,4H42a4,4,0,0,1,0,8H31a2,2,0,0,0-2,2"/><path id="Fill-581" class="cls-2" d="M37.24,56H34.83l-17-6H14V48h4.17l17,6h1.58L61.39,41.19A2.35,2.35,0,0,0,62,40a2,2,0,0,0-1.86-2L44.3,43,43.7,41,60,36a4,4,0,0,1,4,4,4.41,4.41,0,0,1-1.29,2.71l-.25.18L37.24,56"/><polygon id="Fill-582" class="cls-2" points="8 48 10 48 10 46 8 46 8 48"/><polygon id="Fill-583" class="cls-2" points="4 48 6 48 6 46 4 46 4 48"/><path id="Fill-584" class="cls-2" d="M12,52H0V50H12V32H0V30H12a2,2,0,0,1,2,2V50a2,2,0,0,1-2,2"/></g></g></g></g></g></svg>