<?xml version="1.0" encoding="utf-8"?>
<!-- Generator: Adobe Illustrator 23.0.6, SVG Export Plug-In . SVG Version: 6.00 Build 0)  -->
<svg version="1.1" id="Layer_1" xmlns="http://www.w3.org/2000/svg" xmlns:xlink="http://www.w3.org/1999/xlink" x="0px" y="0px"
	 viewBox="0 0 31.9 31.9" style="enable-background:new 0 0 31.9 31.9;" xml:space="preserve">
<style type="text/css">
	.st0{fill:#E97025;}
</style>
<g>
	<g>
		<g>
			<path class="st0" d="M25,9.3c-0.3,0-0.5-0.1-0.7-0.3c-0.4-0.4-0.4-1,0-1.4l1.4-1.4c0.4-0.4,1-0.4,1.4,0c0.4,0.4,0.4,1,0,1.4
				L25.7,9C25.5,9.2,25.3,9.3,25,9.3z"/>
		</g>
		<g>
			<path class="st0" d="M7,9.3C6.8,9.3,6.5,9.2,6.3,9L5,7.7c-0.4-0.4-0.4-1,0-1.4c0.4-0.4,1-0.4,1.4,0l1.3,1.3c0.4,0.4,0.4,1,0,1.4
				C7.5,9.2,7.3,9.3,7,9.3z"/>
		</g>
	</g>
	<g>
		<path class="st0" d="M15,4.4V2.3c0-0.6,0.5-1,1-1c0.5,0,1,0.5,1,1v2.1c0,0.6-0.5,1-1,1C15.5,5.4,15,5,15,4.4z"/>
	</g>
	<g>
		<g>
			<path class="st0" d="M4.8,16.9h-2c-0.5,0-1-0.5-1-1s0.4-1,1-1h2c0.6,0,1,0.5,1,1S5.4,16.9,4.8,16.9z"/>
		</g>
		<g>
			<path class="st0" d="M29.1,16.9h-2c-0.5,0-1-0.5-1-1s0.4-1,1-1h2c0.5,0,1,0.5,1,1S29.7,16.9,29.1,16.9z"/>
		</g>
	</g>
	<g>
		<g>
			<g>
				<g>
					<path class="st0" d="M13,24.5c-0.6,0-1-0.5-1-1c0-0.4-0.1-1-0.3-1.1c-0.4-0.4-0.4-1,0-1.4c0.4-0.4,1-0.4,1.4,0
						c0.9,0.9,0.9,2.3,0.9,2.6C14,24.1,13.6,24.5,13,24.5z"/>
				</g>
			</g>
			<g>
				<g>
					<path class="st0" d="M19,24.6L19,24.6c-0.5,0-1-0.5-1-1c0-0.3,0-1.8,0.9-2.7c0.4-0.4,1-0.3,1.4,0.1c0.4,0.4,0.3,1-0.1,1.4
						c-0.2,0.1-0.3,0.8-0.3,1.2C20,24.1,19.6,24.6,19,24.6z"/>
				</g>
			</g>
		</g>
		<g>
			<path class="st0" d="M12.4,22.7c-0.2,0-0.4-0.1-0.6-0.2C9.3,20.7,8,18.3,8,15.7c0-4.4,3.6-8,8-8c0.5,0,1,0.5,1,1s-0.5,1-1,1
				c-3.3,0-6,2.7-6,6c0,2.5,1.6,4.2,3,5.2c0.4,0.3,0.6,1,0.2,1.4C13,22.5,12.7,22.7,12.4,22.7z"/>
		</g>
		<g>
			<path class="st0" d="M19.6,22.7c-0.3,0-0.6-0.1-0.8-0.4c-0.3-0.5-0.2-1.1,0.2-1.4c1.4-1,3-2.7,3-5.2c0-3.3-2.7-6-6-6
				c-0.6,0-1-0.4-1-1s0.5-1,1-1c4.4,0,8,3.6,8,8c0,2.7-1.3,5-3.8,6.8C20,22.6,19.8,22.7,19.6,22.7z"/>
		</g>
		<g>
			<path class="st0" d="M16,30.7c-2.8,0-3.8-1.9-4-3c0,0,0-0.1,0-0.2v-4c0-0.5,0.4-1,1-1s1,0.5,1,1v3.9c0.1,0.3,0.4,1.2,2,1.2
				c0.5,0,1,0.5,1,1C17,30.2,16.6,30.7,16,30.7z"/>
		</g>
		<g>
			<path class="st0" d="M16,30.7c-0.6,0-1-0.5-1-1s0.5-1,1-1c1.6,0,1.9-1,2-1.2v-3.9c0-0.5,0.5-1,1-1s1,0.5,1,1v4c0,0,0,0.1,0,0.2
				C19.8,28.7,18.8,30.7,16,30.7z"/>
		</g>
		<g>
			<path class="st0" d="M16.1,25.7c-2,0-3.5-0.8-3.6-0.9c-0.5-0.3-0.7-0.9-0.4-1.4c0.3-0.5,0.9-0.7,1.4-0.4c0.1,0.1,2.6,1.4,5,0
				c0.5-0.3,1.1-0.1,1.4,0.4s0.1,1.1-0.4,1.4C18.3,25.4,17.2,25.7,16.1,25.7z"/>
		</g>
	</g>
</g>
</svg>
