<svg width="24" height="30" viewBox="0 0 24 30" fill="none" xmlns="http://www.w3.org/2000/svg">
<g id="Group 2">
<path id="Fill 36 Copy" fill-rule="evenodd" clip-rule="evenodd" d="M23 30H1C0.7235 30 0.5 29.7765 0.5 29.5V0.5C0.5 0.2235 0.7235 0 1 0H6.5V1H1.5V29H22.5V1H17.5V0H23C23.2765 0 23.5 0.2235 23.5 0.5V29.5C23.5 29.7765 23.2765 30 23 30Z" fill="#A5ADB1"/>
<path id="Fill 44 Copy 11" fill-rule="evenodd" clip-rule="evenodd" d="M6 10.5H7V9.5H6V10.5Z" fill="#E86717"/>
<path id="Fill 44 Copy 10" fill-rule="evenodd" clip-rule="evenodd" d="M6 8H7V7H6V8Z" fill="#E86717"/>
<path id="Fill 45 Copy 5" fill-rule="evenodd" clip-rule="evenodd" d="M6 13H7V12H6V13Z" fill="#E86717"/>
<path id="Fill 46 Copy 5" fill-rule="evenodd" clip-rule="evenodd" d="M6 15.5H7V14.5H6V15.5Z" fill="#E86717"/>
<path id="Fill 47 Copy 5" fill-rule="evenodd" clip-rule="evenodd" d="M6 18H7V17H6V18Z" fill="#E86717"/>
<path id="Fill 48 Copy 5" fill-rule="evenodd" clip-rule="evenodd" d="M6 20.5H7V19.5H6V20.5Z" fill="#E86717"/>
<path id="Fill 49 Copy 5" fill-rule="evenodd" clip-rule="evenodd" d="M6 23H7V22H6V23Z" fill="#E86717"/>
<path id="Fill 44 Copy 9" fill-rule="evenodd" clip-rule="evenodd" d="M8 10.5H18V9.5H8V10.5Z" fill="#E86717"/>
<path id="Fill 44 Copy 8" fill-rule="evenodd" clip-rule="evenodd" d="M8 8H18V7H8V8Z" fill="#E86717"/>
<path id="Fill 44 Copy 12" fill-rule="evenodd" clip-rule="evenodd" d="M6.5 1H17.5V0H6.5V1Z" fill="#A5ADB1"/>
<path id="Fill 45 Copy 4" fill-rule="evenodd" clip-rule="evenodd" d="M8 13H18V12H8V13Z" fill="#E86717"/>
<path id="Fill 46 Copy 4" fill-rule="evenodd" clip-rule="evenodd" d="M8 15.5H18V14.5H8V15.5Z" fill="#E86717"/>
<path id="Fill 47 Copy 4" fill-rule="evenodd" clip-rule="evenodd" d="M8 18H18V17H8V18Z" fill="#E86717"/>
<path id="Fill 48 Copy 4" fill-rule="evenodd" clip-rule="evenodd" d="M8 20.5H18V19.5H8V20.5Z" fill="#E86717"/>
<path id="Fill 49 Copy 4" fill-rule="evenodd" clip-rule="evenodd" d="M8 23H18V22H8V23Z" fill="#E86717"/>
</g>
</svg>
