<?xml version="1.0" encoding="UTF-8"?>
<svg width="22px" height="21px" viewBox="0 0 22 21" version="1.1" xmlns="http://www.w3.org/2000/svg" xmlns:xlink="http://www.w3.org/1999/xlink">
    <title>Group 12 Copy 6</title>
    <defs>
        <polygon id="path-1" points="-6.10622664e-16 0 20.167125 0 20.167125 20.1675833 -6.10622664e-16 20.1675833"></polygon>
    </defs>
    <g id="Tietoaineisto-ja-data-aineisto" stroke="none" stroke-width="1" fill="none" fill-rule="evenodd">
        <g id="Tietoaineisto-KIRJAUTUNUT/ADMIN/YKSITYINEN-TILA-XL" transform="translate(-185.000000, -209.000000)">
            <g id="Group-12-Copy-6" transform="translate(185.000000, 209.000000)">
                <path d="M5.49908333,16.5011 C5.36158333,16.5011 5.22133333,16.4699333 5.09025,16.4039333 C1.24391667,14.4807667 0,11.3155167 0,10.0835167 C0,7.68918333 3.85458333,1.83351667 11,1.83351667 C14.6510833,1.83351667 16.5165,3.30385 17.1480833,3.93635 C17.5065,4.29385 17.5065,4.8741 17.1480833,5.23251667 C16.7896667,5.59001667 16.2103333,5.59001667 15.8519167,5.23251667 C15.4843333,4.86493333 14.0488333,3.66685 11,3.66685 C4.78133333,3.66685 1.83333333,8.81393333 1.83333333,10.0835167 C1.83333333,10.5180167 2.54191667,13.0801 5.90975,14.7640167 C6.36258333,14.9904333 6.54683333,15.54135 6.32041667,15.9941833 C6.15908333,16.3150167 5.8355,16.5011 5.49908333,16.5011" id="Fill-1" fill="#FFFFFF"></path>
                <path d="M11,18.3333333 C9.96966667,18.3333333 8.96866667,18.2123333 8.02175,17.974 C7.53133333,17.85025 7.23433333,17.3515833 7.35716667,16.8611667 C7.48091667,16.3698333 7.97866667,16.0728333 8.47091667,16.1956667 C9.27025,16.3973333 10.1218333,16.5 11,16.5 C17.2186667,16.5 20.1666667,11.3529167 20.1666667,10.0833333 C20.1666667,9.70016667 19.76975,8.45441667 18.5423333,7.05283333 C18.2086667,6.6715 18.2471667,6.09216667 18.6285,5.75941667 C19.0089167,5.42575 19.58825,5.46425 19.9219167,5.84466667 C21.1841667,7.2875 22,8.95125 22,10.0833333 C22,12.4776667 18.1454167,18.3333333 11,18.3333333" id="Fill-3" fill="#FFFFFF"></path>
                <path d="M10.9990833,14.6666667 C10.5205833,14.6666667 10.11725,14.2945 10.0851667,13.8105 C10.0521667,13.3045 10.4344167,12.8681667 10.9404167,12.8351667 C12.4446667,12.7361667 13.65375,11.528 13.7518333,10.02375 C13.7848333,9.51866667 14.234,9.13366667 14.72625,9.1685 C15.2313333,9.2015 15.6145,9.63783333 15.5815,10.1429167 C15.4238333,12.562 13.4795833,14.5053333 11.0595833,14.6648333 C11.0394167,14.66575 11.01925,14.6666667 10.9990833,14.6666667" id="Fill-5" fill="#FFFFFF"></path>
                <g id="Group-9" transform="translate(0.926246, 0.000000)">
                    <mask id="mask-2" fill="white">
                        <use xlink:href="#path-1"></use>
                    </mask>
                    <g id="Clip-8"></g>
                    <path d="M0.916895833,20.1675833 C0.682229167,20.1675833 0.4475625,20.07775 0.2688125,19.899 C-0.0896041667,19.5415 -0.0896041667,18.9603333 0.2688125,18.6028333 L18.6021458,0.268583333 C18.9605625,-0.0898333333 19.5398958,-0.0898333333 19.8983125,0.268583333 C20.2567292,0.626083333 20.2567292,1.20725 19.8983125,1.56475 L1.56497917,19.899 C1.38622917,20.07775 1.1515625,20.1675833 0.916895833,20.1675833" id="Fill-7" fill="#FFFFFF" mask="url(#mask-2)"></path>
                </g>
                <path d="M7.83108333,12.8451583 C7.51575,12.8451583 7.20866667,12.6819917 7.03816667,12.3904917 C6.63116667,11.6929083 6.41666667,10.8954083 6.41666667,10.0841583 C6.41666667,7.55690833 8.47275,5.500825 11,5.500825 C12.1320833,5.500825 13.21925,5.91699167 14.0616667,6.67415833 C14.4384167,7.01149167 14.4695833,7.59174167 14.1313333,7.96849167 C13.7930833,8.344325 13.21375,8.37640833 12.837,8.03724167 C12.3319167,7.58349167 11.67925,7.33415833 11,7.33415833 C9.48383333,7.33415833 8.25,8.56799167 8.25,10.0841583 C8.25,10.571825 8.37833333,11.0494083 8.62216667,11.4664917 C8.877,11.9037417 8.72941667,12.4647417 8.29216667,12.7204917 C8.14733333,12.804825 7.98783333,12.8451583 7.83108333,12.8451583" id="Fill-10" fill="#FFFFFF"></path>
            </g>
        </g>
    </g>
</svg>
