<?xml version="1.0" encoding="UTF-8" standalone="no"?>
<svg width="80px" height="80px" viewBox="0 0 80 80" version="1.1" xmlns="http://www.w3.org/2000/svg" xmlns:xlink="http://www.w3.org/1999/xlink">
    <!-- Generator: Sketch 42 (36781) - http://www.bohemiancoding.com/sketch -->
    <title>Icons / Illustration / Tietokanta</title>
    <desc>Created with Sketch.</desc>
    <defs></defs>
    <g id="Symbols" stroke="none" stroke-width="1" fill="none" fill-rule="evenodd">
        <g id="Icons-/-Illustration-/-Tietokanta">
            <g id="Group-2" transform="translate(8.000000, 8.000000)">
                <polygon id="Fill-219" fill="#A5ACB0" points="31 57 33 57 33 51 31 51"></polygon>
                <path d="M32,58 C30.897,58 30,58.897 30,60 C30,61.103 30.897,62 32,62 C33.103,62 34,61.103 34,60 C34,58.897 33.103,58 32,58 Z M32,64 C29.794,64 28,62.206 28,60 C28,57.794 29.794,56 32,56 C34.206,56 36,57.794 36,60 C36,62.206 34.206,64 32,64 L32,64 Z" id="Fill-220" fill="#A5ACB0"></path>
                <polygon id="Fill-221" fill="#A5ACB0" points="0 61 29 61 29 59 0 59"></polygon>
                <polygon id="Fill-222" fill="#A5ACB0" points="35 61 64 61 64 59 35 59"></polygon>
                <path d="M32,2 C18.37,2 10,5.494 10,8 C10,10.506 18.37,14 32,14 C45.63,14 54,10.506 54,8 C54,5.494 45.63,2 32,2 Z M32,16 C20.365,16 8,13.196 8,8 C8,2.804 20.365,0 32,0 C43.635,0 56,2.804 56,8 C56,13.196 43.635,16 32,16 L32,16 Z" id="Fill-223" fill="#EA7125"></path>
                <path d="M32,28 C20.365,28 8,25.196 8,20 L8,13 L10,13 L10,20 C10,22.506 18.37,26 32,26 C45.63,26 54,22.506 54,20 L54,13 L56,13 L56,20 C56,25.196 43.635,28 32,28" id="Fill-224" fill="#EA7125"></path>
                <path d="M32,40 C20.365,40 8,37.196 8,32 L8,25 L10,25 L10,32 C10,34.506 18.37,38 32,38 C45.63,38 54,34.506 54,32 L54,25 L56,25 L56,32 C56,37.196 43.635,40 32,40" id="Fill-225" fill="#EA7125"></path>
                <path d="M32,52 C20.365,52 8,49.196 8,44 L8,37 L10,37 L10,44 C10,46.506 18.37,50 32,50 C45.63,50 54,46.506 54,44 L54,37 L56,37 L56,44 C56,49.196 43.635,52 32,52" id="Fill-226" fill="#EA7125"></path>
                <polygon id="Fill-227" fill="#A5ACB0" points="31 46 33 46 33 44 31 44"></polygon>
                <polygon id="Fill-228" fill="#A5ACB0" points="27 46 29 46 29 44 27 44"></polygon>
                <polygon id="Fill-229" fill="#A5ACB0" points="35 46 37 46 37 44 35 44"></polygon>
                <polygon id="Fill-230" fill="#A5ACB0" points="31 34 33 34 33 32 31 32"></polygon>
                <polygon id="Fill-231" fill="#A5ACB0" points="27 34 29 34 29 32 27 32"></polygon>
                <polygon id="Fill-232" fill="#A5ACB0" points="35 34 37 34 37 32 35 32"></polygon>
                <polygon id="Fill-233" fill="#A5ACB0" points="31 22 33 22 33 20 31 20"></polygon>
                <polygon id="Fill-234" fill="#A5ACB0" points="27 22 29 22 29 20 27 20"></polygon>
                <polygon id="Fill-235" fill="#A5ACB0" points="35 22 37 22 37 20 35 20"></polygon>
            </g>
        </g>
    </g>
</svg>