<?xml version="1.0" encoding="UTF-8" standalone="no"?>
<svg width="80px" height="80px" viewBox="0 0 80 80" version="1.1" xmlns="http://www.w3.org/2000/svg" xmlns:xlink="http://www.w3.org/1999/xlink">
    <!-- Generator: Sketch 42 (36781) - http://www.bohemiancoding.com/sketch -->
    <title>Icons / Illustration / Palveluv채yl채</title>
    <desc>Created with Sketch.</desc>
    <defs></defs>
    <g id="Symbols" stroke="none" stroke-width="1" fill="none" fill-rule="evenodd">
        <g id="Icons-/-Illustration-/-Palveluv채yl채">
            <g id="Group-2" transform="translate(8.000000, 8.000000)">
                <polygon id="Fill-415" fill="#EA7125" points="24.00025 25 26.00025 25 26.00025 23 24.00025 23"></polygon>
                <polygon id="Fill-416" fill="#EA7125" points="28.00025 25 30.00025 25 30.00025 23 28.00025 23"></polygon>
                <polygon id="Fill-417" fill="#EA7125" points="32.00025 25 34.00025 25 34.00025 23 32.00025 23"></polygon>
                <polygon id="Fill-418" fill="#EA7125" points="30.00025 41 32.00025 41 32.00025 39 30.00025 39"></polygon>
                <polygon id="Fill-419" fill="#EA7125" points="34.00025 41 36.00025 41 36.00025 39 34.00025 39"></polygon>
                <polygon id="Fill-420" fill="#EA7125" points="38.00025 41 40.00025 41 40.00025 39 38.00025 39"></polygon>
                <polygon id="Fill-421" fill="#EA7125" points="36.00025 25 50.00025 25 50.00025 23 36.00025 23"></polygon>
                <polygon id="Fill-422" fill="#EA7125" points="14.00025 41 28.00025 41 28.00025 39 14.00025 39"></polygon>
                <path d="M15.00025,53 C14.74025,53 14.48425,52.898 14.29325,52.707 L0.29325,38.707 C-0.09775,38.316 -0.09775,37.684 0.29325,37.293 L14.29325,23.293 C14.57925,23.006 15.00825,22.919 15.38325,23.076 C15.75625,23.23 16.00025,23.596 16.00025,24 L16.00025,31 L49.00025,31 C49.55225,31 50.00025,31.447 50.00025,32 L50.00025,37.586 L61.58625,26 L50.00025,14.414 L50.00025,20 L48.00025,20 L48.00025,12 C48.00025,11.596 48.24425,11.23 48.61725,11.076 C48.99125,10.92 49.42025,11.007 49.70725,11.293 L63.70725,25.293 C64.09825,25.684 64.09825,26.316 63.70725,26.707 L49.70725,40.707 C49.42025,40.993 48.99125,41.08 48.61725,40.924 C48.24425,40.77 48.00025,40.404 48.00025,40 L48.00025,33 L15.00025,33 C14.44825,33 14.00025,32.553 14.00025,32 L14.00025,26.414 L2.41425,38 L14.00025,49.586 L14.00025,44 L16.00025,44 L16.00025,52 C16.00025,52.404 15.75625,52.77 15.38325,52.924 C15.25925,52.976 15.12925,53 15.00025,53" id="Fill-423" fill="#EA7125"></path>
                <path d="M32.00025,64 C25.86425,64 19.91725,62.264 14.77725,58.976 C14.34625,58.877 14.00025,58.5 14.00025,58.039 L14.00025,57.996 L14.00025,56 L16.00025,56 L16.00025,57.383 C20.78525,60.405 26.30525,62 32.00025,62 C48.54225,62 62.00025,48.542 62.00025,32 L64.00025,32 C64.00025,49.645 49.64525,64 32.00025,64" id="Fill-424" fill="#A5ACB0"></path>
                <path d="M2.00025,32 L0.000250000001,32 C0.000250000001,14.355 14.35525,0 32.00025,0 C38.13625,0 44.08225,1.736 49.22325,5.024 C49.65425,5.123 50.00025,5.5 50.00025,5.961 L50.00025,6.004 L50.00025,8 L48.00025,8 L48.00025,6.617 C43.21525,3.595 37.69525,2 32.00025,2 C15.45825,2 2.00025,15.458 2.00025,32" id="Fill-425" fill="#A5ACB0"></path>
            </g>
        </g>
    </g>
</svg>