<?xml version="1.0" encoding="UTF-8"?><svg id="a" xmlns="http://www.w3.org/2000/svg" width="32" height="32" viewBox="0 0 32 32"><rect x="24.86" y=".06" width="3.57" height="3.57" fill="#4b5586" stroke-width="0"/><rect x="21.29" y=".06" width="3.57" height="3.57" fill="#70729b" stroke-width="0"/><rect x="24.86" y="3.63" width="3.57" height="3.57" fill="#5d6390" stroke-width="0"/><rect x="28.43" y="3.63" width="3.57" height="3.57" fill="#8181a7" stroke-width="0"/><rect x="28.43" y="7.21" width="3.57" height="3.57" fill="#4b5586" stroke-width="0"/><path d="m28.43,7.21h-3.57v-3.57h-3.57V.06H1.16C.52.06,0,.58,0,1.22v29.56c0,.64.52,1.16,1.16,1.16h29.67c.64,0,1.16-.52,1.16-1.16V10.78h-3.57v-3.57Z" fill="#233a75" stroke-width="0"/><path d="m8.15,11.65v-2.9c0-.64.52-1.16,1.16-1.16h2.91v4.06h-4.07Z" fill="#fff" stroke-width="0"/><path d="m8.15,15.71h4.07v8.11c0,.32-.26.58-.58.58h-2.91c-.32,0-.58-.26-.58-.58v-8.11Z" fill="#fff" stroke-width="0"/><path d="m16.29,7.6h7.56c.32,0,.58.26.58.58v3.48h-8.15v-4.06Z" fill="#fff" stroke-width="0"/><path d="m23.85,19.77h-7.56v-4.06h8.15v3.48c0,.32-.26.58-.58.58" fill="#fff" stroke-width="0"/></svg>