<?xml version="1.0" encoding="UTF-8"?>
<svg width="80px" height="80px" viewBox="0 0 80 80" version="1.1" xmlns="http://www.w3.org/2000/svg" xmlns:xlink="http://www.w3.org/1999/xlink">
    <title>Icons/Illustrative icons/web-development</title>
    <g  id="Icons/Illustrative-icons/web-development" stroke="none" stroke-width="1" fill="none" fill-rule="evenodd">
        <g  id="Group-2" transform="translate(10.000000, 8.000000)">
            <polyline  id="Fill-45" fill="#A5ADB1" points="60 56 48 56 48 54 58 54 58 2 2 2 2 54 12 54 12 56 0 56 0 0 60 0 60 56"></polyline>
            <polygon  id="Fill-46" fill="#A5ADB1" points="1 10 59 10 59 8 1 8"></polygon>
            <polygon  id="Fill-47" fill="#A5ADB1" points="4 6 6 6 6 4 4 4"></polygon>
            <polygon  id="Fill-48" fill="#A5ADB1" points="8 6 10 6 10 4 8 4"></polygon>
            <polygon  id="Fill-49" fill="#A5ADB1" points="12 6 14 6 14 4 12 4"></polygon>
            <polygon  id="Fill-50" fill="#A5ADB1" points="16 9 18 9 18 1 16 1"></polygon>
            <polygon  id="Fill-51" fill="#A5ADB1" points="20 6 56 6 56 4 20 4"></polygon>
            <polygon  id="Fill-56" fill="#A5ADB1" points="5 15 15 15 15 13 5 13"></polygon>
            <polygon  id="Fill-57" fill="#A5ADB1" points="5 20 19 20 19 18 5 18"></polygon>
            <polygon  id="Fill-58" fill="#A5ADB1" points="5 25 11 25 11 23 5 23"></polygon>
            <polygon  id="Fill-59" fill="#A5ADB1" points="22 20 30 20 30 18 22 18"></polygon>
            <polygon  id="Fill-60" fill="#A5ADB1" points="33 20 41 20 41 18 33 18"></polygon>
            <polygon  id="Fill-61" fill="#A5ADB1" points="14 25 22 25 22 23 14 23"></polygon>
            <polygon  id="Fill-62" fill="#A5ADB1" points="5 30 13 30 13 28 5 28"></polygon>
            <polygon  id="Fill-63" fill="#A5ADB1" points="18 15 26 15 26 13 18 13"></polygon>
            <path d="M31.371,56.862 L31.732,57.334 L33.253,59.555 C33.967,59.383 34.675,59.151 35.367,58.862 L35.277,55.601 L35.767,55.299 C36.26,54.994 36.714,54.666 37.117,54.323 L37.557,53.949 L40.624,55.041 C41.117,54.469 41.558,53.87 41.941,53.249 L39.952,50.663 L40.171,50.13 C40.371,49.644 40.537,49.124 40.679,48.541 L40.814,47.98 L43.947,47.057 C43.983,46.659 44,46.296 44,45.945 C44,45.594 43.983,45.231 43.947,44.833 L40.814,43.91 L40.679,43.349 C40.537,42.766 40.371,42.246 40.171,41.76 L39.952,41.227 L41.941,38.641 C41.558,38.02 41.117,37.421 40.624,36.849 L37.557,37.941 L37.117,37.567 C36.714,37.224 36.26,36.896 35.767,36.591 L35.277,36.289 L35.367,33.028 C34.675,32.739 33.967,32.507 33.253,32.335 L31.406,35.031 L30.832,34.988 C30.233,34.943 29.731,34.946 29.204,34.985 L28.629,35.028 L28.268,34.556 L26.747,32.335 C26.033,32.507 25.325,32.739 24.633,33.028 L24.723,36.289 L24.233,36.591 C23.74,36.896 23.286,37.224 22.883,37.567 L22.443,37.941 L19.375,36.849 C18.883,37.421 18.443,38.02 18.06,38.641 L20.048,41.225 L19.829,41.758 C19.628,42.248 19.462,42.767 19.322,43.348 L19.186,43.909 L16.053,44.833 C16.017,45.231 16,45.594 16,45.945 C16,46.296 16.017,46.659 16.053,47.057 L19.186,47.981 L19.322,48.542 C19.462,49.123 19.628,49.642 19.829,50.132 L20.048,50.665 L18.06,53.249 C18.443,53.87 18.883,54.469 19.375,55.041 L22.443,53.949 L22.883,54.323 C23.286,54.666 23.74,54.994 24.233,55.299 L24.723,55.601 L24.633,58.862 C25.325,59.151 26.033,59.383 26.747,59.555 L28.594,56.859 L29.168,56.902 C29.767,56.947 30.269,56.944 30.796,56.905 L31.371,56.862 Z M32.352,61.778 L30.404,58.934 C30.131,58.947 29.862,58.947 29.596,58.934 L27.648,61.778 L27.007,61.656 C25.706,61.41 24.421,60.989 23.187,60.407 L22.597,60.128 L22.692,56.683 C22.468,56.531 22.251,56.375 22.042,56.215 L18.8,57.368 L18.352,56.892 C17.412,55.892 16.614,54.803 15.981,53.654 L15.665,53.081 L17.77,50.344 C17.683,50.096 17.602,49.841 17.526,49.577 L14.22,48.602 L14.139,47.953 C14.044,47.199 14,46.561 14,45.945 C14,45.329 14.044,44.691 14.139,43.937 L14.22,43.288 L17.526,42.313 C17.602,42.049 17.683,41.794 17.77,41.546 L15.665,38.809 L15.981,38.236 C16.614,37.087 17.412,35.998 18.352,34.998 L18.8,34.522 L22.042,35.675 C22.251,35.515 22.468,35.359 22.692,35.207 L22.597,31.762 L23.187,31.483 C24.421,30.901 25.706,30.48 27.007,30.234 L27.648,30.112 L29.596,32.956 C29.868,32.941 30.137,32.941 30.404,32.956 L32.352,30.112 L32.993,30.234 C34.294,30.48 35.579,30.901 36.812,31.483 L37.403,31.762 L37.308,35.207 C37.532,35.359 37.749,35.515 37.958,35.675 L41.2,34.522 L41.648,34.998 C42.588,35.998 43.386,37.088 44.02,38.236 L44.335,38.809 L42.229,41.546 C42.317,41.794 42.398,42.049 42.474,42.314 L45.78,43.288 L45.861,43.937 C45.956,44.691 46,45.329 46,45.945 C46,46.561 45.956,47.199 45.861,47.953 L45.78,48.602 L42.474,49.576 C42.398,49.841 42.317,50.096 42.229,50.344 L44.335,53.081 L44.02,53.654 C43.386,54.802 42.588,55.892 41.648,56.892 L41.2,57.368 L37.958,56.215 C37.749,56.375 37.532,56.531 37.308,56.683 L37.403,60.128 L36.812,60.407 C35.579,60.989 34.294,61.41 32.993,61.656 L32.352,61.778 L32.352,61.778 Z"  id="Fill-345" fill="#E97025"></path>
            <path d="M30,40.945 C27.243,40.945 25,43.188 25,45.945 C25,48.702 27.243,50.945 30,50.945 C32.757,50.945 35,48.702 35,45.945 C35,43.188 32.757,40.945 30,40.945 Z M30,52.945 C26.14,52.945 23,49.804 23,45.945 C23,42.086 26.14,38.945 30,38.945 C33.86,38.945 37,42.086 37,45.945 C37,49.804 33.86,52.945 30,52.945 L30,52.945 Z"  id="Fill-346" fill="#E97025"></path>
        </g>
        <rect   id="bounding-box" x="0" y="0" width="80" height="80"></rect>
    </g>
</svg>