<svg width="24px" height="24px" viewBox="0 0 24 24" version="1.1" xmlns="http://www.w3.org/2000/svg" xmlns:xlink="http://www.w3.org/1999/xlink">
    <g id="Icons/Basic-icons/hint" stroke-width="1">
        <path d="M11.99905,0.998514793 C16.41145,0.998514793 20.00045,4.58851479 20.00045,9.00051479 C20.00045,11.6395215 18.7129101,13.9730434 16.2783122,15.7540262 L16.29025,15.7374148 C16.13449,15.8801948 15.9996654,16.5044898 15.9982539,16.9175071 L15.9982495,16.9175039 L15.9989576,17.2074122 C16.0005625,17.2355841 16.0009676,17.2637378 16.0001942,17.2917979 L15.99825,20.8805148 C15.99825,20.9335148 15.99425,20.9865148 15.98525,21.0395148 C15.8255726,22.0295148 14.8408171,23.8745616 12.2624293,23.9925667 L11.99925,23.9985148 L11.99925,23.9985148 C9.22525,23.9985148 8.17925,22.0635148 8.01325,21.0405148 C8.00425,20.9875148 8.00025,20.9345148 8.00025,20.8805148 L8.00025,16.9185148 L8.00060625,16.8900142 C8.00038442,16.8816399 8.00026526,16.8732397 8.00025,16.8648148 C7.99640432,16.4764012 7.87794198,15.9345492 7.70973567,15.740467 L7.79905,15.8105148 C5.31405,14.0235148 4.00005,11.6685148 4.00005,9.00051479 C4.00005,4.58851479 7.58805,0.998514793 11.99905,0.998514793 Z M10.0004603,18.7087836 L10.00025,20.7755148 C10.0729457,21.0548191 10.412802,21.9187662 11.8030819,21.9933641 L11.99925,21.9985148 L11.99925,21.9985148 C13.58325,21.9985148 13.93425,21.0335148 13.99825,20.7795148 L13.9980255,18.7484431 C13.3449584,18.9295436 12.7111851,19.0000148 12.12035,19.0000148 C11.3132912,19.0000148 10.5865105,18.868769 10.0004603,18.7087836 Z M21.70725,15.2915148 L23.70725,17.2915148 C24.09825,17.6825148 24.09825,18.3145148 23.70725,18.7055148 C23.54475,18.8680148 23.3398889,18.9631537 23.1279676,18.9903528 L23.00025,18.9985148 L23.00025,18.9985148 C22.74425,18.9985148 22.48825,18.9005148 22.29325,18.7055148 L20.29325,16.7055148 C19.90225,16.3145148 19.90225,15.6825148 20.29325,15.2915148 C20.4737115,15.1110533 20.7055104,15.0138817 20.9412582,15 L21.0592418,15 C21.2949896,15.0138817 21.5267885,15.1110533 21.70725,15.2915148 Z M3.70725,15.2915148 C4.09825,15.6825148 4.09825,16.3145148 3.70725,16.7055148 L1.70725,18.7055148 C1.54475,18.8680148 1.33988889,18.9631537 1.12796759,18.9903528 L1.00025,18.9985148 L1.00025,18.9985148 C0.74425,18.9985148 0.48825,18.9005148 0.29325,18.7055148 C-0.09775,18.3145148 -0.09775,17.6825148 0.29325,17.2915148 L2.29325,15.2915148 C2.47371154,15.1110533 2.70551036,15.0138817 2.94125819,15 L3.05924181,15 C3.29498964,15.0138817 3.52678846,15.1110533 3.70725,15.2915148 Z M11.99945,2.99851479 C8.69205,2.99851479 6.00005,5.69051479 6.00005,9.00051479 C6.00005,11.5235148 7.61405,13.2135148 8.96705,14.1865148 L8.9765826,14.1937631 C8.98723061,14.2016232 8.99775966,14.2097212 9.00816249,14.2180572 L8.96705,14.1865148 C9.00344758,14.2127568 9.03756792,14.2409856 9.06936706,14.270946 C9.07113778,14.2729335 9.07369872,14.2753661 9.07625,14.2778148 C9.79955668,14.9739666 9.95814325,16.0831631 9.99163008,16.6119403 C10.7774141,16.9052904 12.3623376,17.3095482 14.008197,16.6336787 C14.0455553,16.0680793 14.213152,14.9250423 14.94225,14.2594148 C14.9756449,14.2289738 15.0105545,14.201219 15.0467116,14.1761399 L15.03245,14.1865148 C16.38645,13.2135148 18.00045,11.5235148 18.00045,9.00051479 C18.00045,5.69051479 15.30745,2.99851479 11.99945,2.99851479 Z M2.00025,8.99851479 C2.55325,8.99851479 3.00025,9.44651479 3.00025,9.99851479 C3.00025,10.5110862 2.61482653,10.9339842 2.11700328,10.991783 L2.00025,10.9985148 L2.00025,10.9985148 L1.00025,10.9985148 C0.44725,10.9985148 0.00025,10.5505148 0.00025,9.99851479 C0.00025,9.44651479 0.44725,8.99851479 1.00025,8.99851479 L2.00025,8.99851479 Z M23.00025,7.99851479 C23.55325,7.99851479 24.00025,8.44651479 24.00025,8.99851479 C24.00025,9.51108622 23.6148265,9.93398418 23.1170033,9.99178301 L23.00025,9.99851479 L23.00025,9.99851479 L22.00025,9.99851479 C21.44725,9.99851479 21.00025,9.55051479 21.00025,8.99851479 C21.00025,8.44651479 21.44725,7.99851479 22.00025,7.99851479 L23.00025,7.99851479 Z M23.70725,0.291514793 C24.09825,0.682514793 24.09825,1.31451479 23.70725,1.70551479 L21.70725,3.70551479 C21.54475,3.86801479 21.3398889,3.96315368 21.1279676,3.99035275 L21.00025,3.99851479 L21.00025,3.99851479 C20.74425,3.99851479 20.48825,3.90051479 20.29325,3.70551479 C19.90225,3.31451479 19.90225,2.68251479 20.29325,2.29151479 L22.29325,0.291514793 C22.4737115,0.111053255 22.7055104,0.0138816568 22.9412582,4.79616347e-14 L23.0592418,4.79616347e-14 C23.2949896,0.0138816568 23.5267885,0.111053255 23.70725,0.291514793 Z M1.70725,0.291514793 L3.70725,2.29151479 C4.09825,2.68251479 4.09825,3.31451479 3.70725,3.70551479 C3.54475,3.86801479 3.33988889,3.96315368 3.12796759,3.99035275 L3.00025,3.99851479 L3.00025,3.99851479 C2.74425,3.99851479 2.48825,3.90051479 2.29325,3.70551479 L0.29325,1.70551479 C-0.09775,1.31451479 -0.09775,0.682514793 0.29325,0.291514793 C0.473711538,0.111053255 0.705510355,0.0138816568 0.941258193,4.79616347e-14 L1.05924181,4.79616347e-14 C1.29498964,0.0138816568 1.52678846,0.111053255 1.70725,0.291514793 Z" id="path-1" fill-rule="nonzero"></path>
    </g>
</svg>