<svg fill="#E97025" width="24px" height="24px" viewBox="0 0 24 24" version="1.1" xmlns="http://www.w3.org/2000/svg" xmlns:xlink="http://www.w3.org/1999/xlink">
    <g id="Icons/Basic-icons/info" fill="#E97025" stroke-width="1" >
        <path d="M12,-1.24344979e-14 C18.617,-1.24344979e-14 24,5.383 24,12 C24,18.617 18.617,24 12,24 C5.383,24 2.13162821e-14,18.617 2.13162821e-14,12 C2.13162821e-14,5.383 5.383,-1.24344979e-14 12,-1.24344979e-14 Z M12,2 C6.486,2 2,6.486 2,12 C2,17.514 6.486,22 12,22 C17.514,22 22,17.514 22,12 C22,6.486 17.514,2 12,2 Z M12.002875,10.0003646 C12.5548692,10.0003646 13.0028646,10.4483599 13.0028646,11.0003542 L13.0028646,17.0002917 L14.0028541,17.0002917 C14.5548484,17.0002917 15.0028437,17.448287 15.0028437,18.0002813 C15.0028437,18.5522755 14.5548484,19.0002708 14.0028541,19.0002708 L9.99989583,19.0002708 C9.44790158,19.0002708 8.99990625,18.5522755 8.99990625,18.0002813 C8.99990625,17.448287 9.44790158,17.0002917 9.99989583,17.0002917 L10.9998854,17.0002917 L10.9998854,12.0003438 L9.99989583,12.0003438 C9.44790158,12.0003438 8.99990625,11.5523484 8.99990625,11.0003542 C8.99990625,10.4483599 9.44790158,10.0003646 9.99989583,10.0003646 L12.002875,10.0003646 Z M11.5018802,5.00041667 C12.3318715,5.00041667 13.0028646,5.67240967 13.0028646,6.50040104 C13.0028646,7.27968704 12.4084901,7.92078763 11.6465945,7.99351474 L11.5017552,8.00038542 L11.5017552,8.00038542 L11.4998802,8.00038542 C10.6708888,8.00038542 9.99989583,7.32839242 9.99989583,6.50040104 C9.99989583,5.67240967 10.6708888,5.00041667 11.4998802,5.00041667 L11.5018802,5.00041667 Z" id="path" fill="#E97025"></path>
    </g>
</svg>